<svg xmlns="http://www.w3.org/2000/svg" style="display:none"><symbol id="android" viewBox="0 0 475.071 475.071"><path d="M65.947 153.884c-8.183 0-15.136 2.853-20.844 8.566-5.708 5.71-8.564 12.562-8.564 20.555v122.772c0 8.18 2.854 15.126 8.563 20.837 5.708 5.712 12.657 8.562 20.84 8.562 8.187 0 15.086-2.85 20.7-8.562 5.618-5.71 8.425-12.658 8.425-20.837V183.005c0-7.996-2.857-14.847-8.565-20.555-5.71-5.71-12.564-8.566-20.556-8.566zM106.494 349.457c0 8.754 3.046 16.177 9.136 22.27 6.09 6.084 13.512 9.13 22.27 9.13h21.128l.288 64.81c0 8.185 2.855 15.128 8.564 20.84 5.708 5.71 12.562 8.565 20.555 8.565 8.188 0 15.133-2.854 20.844-8.565 5.71-5.712 8.563-12.655 8.563-20.84v-64.81h39.397v64.81c0 8.185 2.854 15.128 8.562 20.84 5.715 5.71 12.662 8.565 20.848 8.565 8.18 0 15.126-2.854 20.834-8.565 5.708-5.712 8.56-12.655 8.56-20.84v-64.81h21.415c8.56 0 15.89-3.04 21.98-9.13 6.09-6.093 9.137-13.516 9.137-22.27v-190.15H106.494v190.15zM302.345 43.682L322.61 6.28c1.335-2.475.855-4.378-1.424-5.71-2.478-1.142-4.38-.57-5.708 1.715l-20.56 37.685c-18.082-7.994-37.205-11.99-57.384-11.99-20.174 0-39.304 3.996-57.387 11.99L159.59 2.286C158.264 0 156.358-.57 153.884.572c-2.285 1.33-2.758 3.234-1.426 5.708l20.27 37.402C152.17 54.15 135.806 68.758 123.62 87.506c-12.18 18.75-18.273 39.26-18.273 61.525h264.095c0-22.265-6.09-42.776-18.273-61.524-12.188-18.748-28.453-33.358-48.825-43.824zm-117.2 54.386c-2.188 2.19-4.804 3.284-7.85 3.284-3.046 0-5.614-1.093-7.71-3.284-2.09-2.187-3.14-4.805-3.14-7.85 0-3.046 1.05-5.664 3.14-7.854 2.093-2.19 4.665-3.282 7.71-3.282 3.042 0 5.66 1.09 7.85 3.282 2.19 2.19 3.283 4.808 3.283 7.854 0 3.046-1.094 5.66-3.284 7.85zm120.344 0c-2.1 2.19-4.67 3.284-7.714 3.284-3.046 0-5.657-1.093-7.848-3.284-2.19-2.187-3.28-4.805-3.28-7.85 0-3.046 1.09-5.664 3.28-7.854 2.19-2.19 4.802-3.282 7.848-3.282 3.045 0 5.615 1.09 7.713 3.282 2.087 2.19 3.138 4.808 3.138 7.854 0 3.046-1.048 5.66-3.14 7.85zM429.964 162.306c-5.708-5.614-12.655-8.422-20.84-8.422-7.992 0-14.844 2.808-20.552 8.422-5.71 5.616-8.568 12.517-8.568 20.7v122.77c0 8.18 2.857 15.127 8.568 20.838 5.708 5.712 12.56 8.562 20.55 8.562 8.187 0 15.134-2.85 20.842-8.562 5.715-5.71 8.568-12.658 8.568-20.837V183.005c0-8.183-2.853-15.084-8.568-20.7z"/></symbol><symbol id="apple" viewBox="0 0 475.088 475.088"><path d="M391.29 310.91c-13.135-18.842-19.698-40.07-19.698-63.666 0-21.508 6.194-41.213 18.556-59.102 6.662-9.707 17.514-20.934 32.55-33.69-9.895-12.177-19.792-21.694-29.696-28.548-17.89-12.37-38.164-18.555-60.812-18.555-13.51 0-29.98 3.233-49.39 9.71-18.653 6.47-32.264 9.71-40.825 9.71-6.475 0-19.606-2.854-39.4-8.567-19.986-5.71-36.832-8.564-50.536-8.564-32.74 0-59.767 13.705-81.084 41.11-21.508 27.79-32.264 63.383-32.264 106.78 0 46.063 13.993 93.93 41.97 143.608 28.36 49.297 57.006 73.95 85.937 73.95 9.706 0 22.27-3.238 37.684-9.71 15.42-6.275 28.933-9.42 40.545-9.42 12.367 0 26.74 3.045 43.108 9.133 17.32 6.086 30.646 9.132 39.97 9.132 24.363 0 48.825-18.654 73.375-55.96 15.985-23.79 27.692-47.58 35.115-71.375-16.94-5.143-31.974-17.134-45.108-35.977z"/><path d="M294.213 90.22c11.994-11.992 20.844-25.127 26.556-39.4 5.516-14.275 8.27-27.22 8.27-38.832 0-.76-.04-1.712-.144-2.855-.086-1.142-.137-2.09-.137-2.853-.193-.572-.43-1.62-.713-3.14-.284-1.52-.52-2.568-.716-3.14-33.498 7.808-57.29 21.892-71.375 42.26-14.27 20.556-21.698 45.012-22.27 73.372 12.753-1.143 22.646-2.758 29.692-4.853 10.286-3.428 20.552-10.283 30.836-20.56z"/></symbol><symbol id="arrow-down" viewBox="0 0 493.356 493.355"><path d="M355.457 370.873c-1.523-3.614-4.288-5.428-8.285-5.428h-63.954V9.135c0-2.666-.858-4.856-2.57-6.567C278.945.855 276.754 0 274.085 0h-54.818c-2.667 0-4.854.855-6.567 2.568-1.712 1.71-2.57 3.9-2.57 6.567V365.45h-63.954c-3.806 0-6.567 1.81-8.28 5.427-1.52 3.613-1.043 6.943 1.43 9.996L240.68 490.505c1.903 1.902 4.187 2.85 6.854 2.85 2.478 0 4.665-.947 6.567-2.85l99.928-109.632c2.475-3.053 2.955-6.383 1.43-10z"/></symbol><symbol id="chain" viewBox="0 0 465.951 465.951"><path d="M441.962 284.364l-59.39-59.383C366.59 208.997 347.178 201 324.336 201c-23.223 0-43.013 8.374-59.385 25.124L239.825 201c16.75-16.37 25.125-36.257 25.125-59.672 0-22.84-7.898-42.157-23.698-57.958l-58.815-59.097C166.64 8.095 147.225.003 124.195.003c-22.84 0-42.16 7.902-57.958 23.7l-41.97 41.683C8.087 81.188 0 100.504 0 123.343c0 22.84 7.996 42.258 23.982 58.245l59.385 59.383c15.99 15.99 35.404 23.983 58.245 23.983 23.22 0 43.015-8.374 59.383-25.126l25.125 25.126c-16.75 16.37-25.125 36.258-25.125 59.672 0 22.843 7.898 42.154 23.697 57.958l58.82 59.094c15.8 16.177 35.208 24.27 58.238 24.27 22.844 0 42.154-7.897 57.958-23.698l41.973-41.683c16.178-15.804 24.272-35.118 24.272-57.958-.005-22.84-8-42.25-23.99-58.246zM201 162.178c-.572-.57-2.335-2.378-5.28-5.424-2.95-3.046-4.996-5.092-6.137-6.14-1.143-1.047-2.952-2.474-5.426-4.286-2.478-1.81-4.902-3.044-7.28-3.71-2.38-.667-4.998-1-7.854-1-7.61 0-14.084 2.667-19.414 7.994-5.33 5.327-7.993 11.8-7.993 19.414 0 2.853.332 5.47.998 7.85.666 2.383 1.903 4.81 3.71 7.282 1.81 2.474 3.238 4.283 4.284 5.426 1.043 1.14 3.09 3.188 6.135 6.14 3.046 2.95 4.853 4.708 5.424 5.28-5.712 5.898-12.564 8.848-20.556 8.848-7.804 0-14.277-2.568-19.414-7.705L62.81 142.76c-5.327-5.33-7.992-11.8-7.992-19.416 0-7.42 2.662-13.796 7.992-19.126l41.97-41.687c5.524-5.14 11.992-7.704 19.418-7.704 7.61 0 14.083 2.663 19.414 7.993l58.813 59.096c5.33 5.33 7.992 11.8 7.992 19.414 0 7.99-3.14 14.94-9.418 20.848zm202.147 199.554l-41.973 41.686c-5.332 4.945-11.8 7.423-19.418 7.423-7.81 0-14.27-2.565-19.41-7.706l-58.813-59.1c-5.33-5.333-7.99-11.8-7.99-19.41 0-7.995 3.138-14.942 9.42-20.842.576.567 2.335 2.38 5.285 5.42 2.95 3.046 4.996 5.093 6.14 6.14 1.143 1.05 2.95 2.478 5.42 4.288 2.478 1.81 4.9 3.05 7.282 3.713 2.382.667 4.997 1 7.85 1 7.62 0 14.087-2.666 19.42-7.995 5.323-5.328 7.993-11.8 7.993-19.41 0-2.854-.34-5.472-1-7.85-.67-2.383-1.902-4.81-3.72-7.283-1.81-2.47-3.23-4.284-4.28-5.428-1.048-1.136-3.095-3.183-6.14-6.14-3.046-2.95-4.853-4.71-5.428-5.276 5.715-6.09 12.566-9.137 20.554-9.137 7.616 0 14.084 2.663 19.41 7.994l59.387 59.382c5.332 5.33 7.995 11.806 7.995 19.416 0 7.416-2.663 13.8-7.985 19.116z"/></symbol><symbol id="chevron-up" viewBox="0 0 444.819 444.819"><path d="M433.968 278.657L248.388 92.79c-7.42-7.044-16.08-10.566-25.978-10.566-10.088 0-18.652 3.52-25.697 10.566L10.848 278.657C3.615 285.887 0 294.55 0 304.637c0 10.28 3.62 18.843 10.848 25.693l21.41 21.413c6.855 7.23 15.42 10.852 25.698 10.852s18.842-3.62 25.697-10.852L222.41 213.27l138.758 138.47c6.848 7.228 15.413 10.852 25.7 10.852 10.082 0 18.747-3.624 25.975-10.852l21.41-21.412c7.042-7.043 10.566-15.608 10.566-25.693 0-10.09-3.615-18.75-10.852-25.978z"/></symbol><symbol id="close" viewBox="0 0 438.533 438.533"><path d="M409.133 109.203c-19.608-33.592-46.205-60.19-79.798-79.796C295.735 9.8 259.058 0 219.273 0c-39.78 0-76.47 9.8-110.063 29.407-33.595 19.604-60.192 46.2-79.8 79.796C9.8 142.8 0 179.49 0 219.267c0 39.78 9.804 76.463 29.407 110.062 19.607 33.59 46.204 60.188 79.8 79.797 33.596 19.605 70.282 29.407 110.062 29.407s76.47-9.802 110.064-29.407c33.593-19.602 60.19-46.206 79.795-79.798 19.602-33.597 29.402-70.285 29.402-110.063 0-39.782-9.8-76.472-29.4-110.064zM322.62 270.94c3.618 3.612 5.43 7.904 5.43 12.853 0 5.133-1.812 9.514-5.43 13.127l-25.692 25.7c-3.614 3.614-7.994 5.42-13.135 5.42-4.948 0-9.236-1.806-12.847-5.42l-51.676-51.68-51.678 51.68c-3.616 3.614-7.898 5.42-12.847 5.42-5.14 0-9.517-1.806-13.134-5.42l-25.696-25.7c-3.616-3.613-5.424-7.994-5.424-13.127 0-4.948 1.81-9.24 5.424-12.854l51.678-51.674-51.678-51.678c-3.616-3.612-5.424-7.898-5.424-12.847 0-5.14 1.81-9.516 5.424-13.133l25.697-25.693c3.618-3.616 7.995-5.424 13.135-5.424 4.95 0 9.23 1.81 12.847 5.424l51.678 51.674 51.676-51.674c3.61-3.616 7.898-5.424 12.847-5.424 5.14 0 9.52 1.81 13.135 5.424l25.693 25.693c3.618 3.617 5.43 7.994 5.43 13.134 0 4.95-1.812 9.236-5.43 12.848l-51.674 51.678 51.675 51.673z"/></symbol><symbol id="facebook" viewBox="0 0 470.513 470.513"><path d="M271.52 154.17v-40.54c0-6.087.28-10.8.85-14.13.567-3.336 1.857-6.616 3.86-9.854 1.998-3.236 5.235-5.47 9.705-6.708 4.476-1.24 10.424-1.858 17.85-1.858h40.54V0h-64.81c-37.5 0-64.433 8.897-80.803 26.69-16.368 17.8-24.55 44.015-24.55 78.66v48.82h-48.543v81.085h48.538V470.51h97.362V235.257h64.805l8.566-81.086h-73.37z"/></symbol><symbol id="github" viewBox="0 0 438.549 438.549"><path d="M409.132 114.573c-19.608-33.596-46.205-60.194-79.798-79.8C295.736 15.166 259.057 5.365 219.27 5.365c-39.78 0-76.47 9.804-110.062 29.408-33.596 19.605-60.192 46.204-79.8 79.8C9.803 148.168 0 184.853 0 224.63c0 47.78 13.94 90.745 41.827 128.906 27.884 38.164 63.906 64.572 108.063 79.227 5.14.954 8.945.283 11.42-1.996 2.474-2.282 3.71-5.14 3.71-8.562 0-.57-.05-5.708-.144-15.417-.098-9.71-.144-18.18-.144-25.406l-6.567 1.136c-4.187.767-9.47 1.092-15.846 1-6.375-.09-12.992-.757-19.843-2-6.854-1.23-13.23-4.085-19.13-8.558-5.898-4.473-10.085-10.328-12.56-17.556l-2.855-6.57c-1.903-4.374-4.9-9.233-8.992-14.56-4.093-5.33-8.232-8.944-12.42-10.847l-1.998-1.43c-1.332-.952-2.568-2.1-3.71-3.43-1.143-1.33-1.998-2.663-2.57-3.997-.57-1.335-.097-2.43 1.428-3.29 1.525-.858 4.28-1.275 8.28-1.275l5.708.853c3.807.763 8.516 3.042 14.133 6.85 5.615 3.807 10.23 8.755 13.847 14.843 4.38 7.807 9.657 13.755 15.846 17.848 6.184 4.093 12.42 6.136 18.7 6.136 6.28 0 11.703-.476 16.273-1.423 4.565-.95 8.848-2.382 12.847-4.284 1.713-12.758 6.377-22.56 13.988-29.41-10.847-1.14-20.6-2.857-29.263-5.14-8.658-2.286-17.605-5.996-26.835-11.14-9.235-5.137-16.896-11.516-22.985-19.126-6.09-7.614-11.088-17.61-14.987-29.98-3.9-12.373-5.852-26.647-5.852-42.825 0-23.035 7.52-42.637 22.557-58.817-7.044-17.318-6.38-36.732 1.997-58.24 5.52-1.715 13.706-.428 24.554 3.853 10.85 4.284 18.794 7.953 23.84 10.995 5.046 3.04 9.09 5.618 12.135 7.708 17.706-4.947 35.977-7.42 54.82-7.42s37.116 2.473 54.822 7.42l10.85-6.85c7.418-4.57 16.18-8.757 26.26-12.564 10.09-3.806 17.803-4.854 23.135-3.14 8.562 21.51 9.325 40.923 2.28 58.24 15.035 16.18 22.558 35.788 22.558 58.818 0 16.178-1.958 30.497-5.853 42.966-3.9 12.47-8.94 22.457-15.125 29.98-6.19 7.52-13.9 13.85-23.13 18.985-9.233 5.14-18.183 8.85-26.84 11.135-8.663 2.286-18.416 4.004-29.264 5.146 9.894 8.563 14.842 22.078 14.842 40.54v60.237c0 3.422 1.19 6.28 3.572 8.562 2.38 2.278 6.136 2.95 11.276 1.994 44.163-14.653 80.185-41.062 108.068-79.226 27.88-38.16 41.826-81.126 41.826-128.906-.01-39.77-9.818-76.454-29.414-110.05z"/></symbol><symbol id="google-plus" viewBox="0 0 475.092 475.092"><path d="M273.372 302.498a148.384 148.384 0 0 0-16.7-18.842c-6.09-5.804-12.183-11.088-18.27-15.845-6.093-4.756-11.66-9.328-16.703-13.708-5.043-4.374-9.136-8.945-12.276-13.702-3.14-4.757-4.71-9.61-4.71-14.558 0-6.855 2.19-13.278 6.566-19.274 4.377-5.996 9.707-11.8 15.986-17.417 6.28-5.616 12.56-11.752 18.844-18.414 6.276-6.665 11.604-15.465 15.985-26.412 4.373-10.944 6.563-23.458 6.563-37.542 0-16.75-3.713-32.835-11.136-48.25-7.423-15.418-17.89-27.412-31.405-35.976h38.54L303.2 0H178.44c-17.698 0-35.497 1.906-53.383 5.72-26.453 5.9-48.723 19.368-66.806 40.397-18.08 21.033-27.12 44.873-27.12 71.52 0 28.17 10.137 51.583 30.405 70.233 20.27 18.65 44.585 27.978 72.945 27.978 5.71 0 12.37-.478 19.985-1.427-.38 1.522-1.043 3.568-1.997 6.137s-1.715 4.62-2.286 6.14c-.57 1.52-1.047 3.375-1.425 5.566a38.99 38.99 0 0 0-.57 6.71c0 12.563 6.085 26.744 18.27 42.54-14.465.388-28.737 1.67-42.825 3.86-14.084 2.19-28.833 5.617-44.252 10.28-15.417 4.662-29.217 11.42-41.396 20.27-12.182 8.855-21.317 19.367-27.408 31.55C3.533 361.56.01 374.405.01 386.017c0 12.75 2.857 24.314 8.565 34.69 5.708 10.37 13.035 18.842 21.982 25.406 8.945 6.57 19.273 12.083 30.978 16.562 11.704 4.47 23.315 7.66 34.83 9.562 11.515 1.903 22.887 2.854 34.118 2.854 51.007 0 90.98-12.463 119.91-37.396 26.647-23.223 39.97-50.062 39.97-80.517 0-10.855-1.57-20.984-4.712-30.41-3.14-9.43-7.23-17.513-12.278-24.27zm-110.06-103.776c-9.708 0-18.938-2.475-27.695-7.426-8.757-4.95-16.18-11.374-22.27-19.273-6.088-7.898-11.418-16.796-15.987-26.695-4.567-9.896-7.944-19.792-10.135-29.692-2.19-9.895-3.284-19.318-3.284-28.265 0-18.27 4.855-33.973 14.563-47.107 9.705-13.134 23.41-19.7 41.112-19.7 12.563 0 23.935 3.898 34.118 11.703 10.183 7.804 18.177 17.7 23.984 29.692a187.496 187.496 0 0 1 13.417 37.257c3.14 12.847 4.71 24.983 4.71 36.403 0 19.036-4.138 34.317-12.418 45.833-8.282 11.514-21.65 17.272-40.115 17.272zm78.94 214.4c-5.23 8.95-12.32 15.94-21.268 20.982-8.946 5.048-18.51 8.758-28.693 11.14-10.182 2.385-20.888 3.572-32.12 3.572-12.18 0-24.27-1.43-36.257-4.284-11.99-2.85-23.46-7.187-34.403-12.99-10.944-5.8-19.795-13.8-26.55-23.983-6.758-10.185-10.136-21.745-10.136-34.69 0-11.42 2.568-21.602 7.708-30.55 5.142-8.946 11.71-16.085 19.702-21.41 7.994-5.33 17.32-9.712 27.98-13.13 10.66-3.433 20.936-5.808 30.832-7.14 9.895-1.334 19.985-1.994 30.262-1.994 6.283 0 11.043.19 14.277.567 1.143.767 4.043 2.76 8.708 5.996s7.804 5.427 9.423 6.57c1.615 1.136 4.567 3.325 8.85 6.562 4.28 3.237 7.327 5.66 9.135 7.28 1.804 1.617 4.422 4.044 7.85 7.278 3.424 3.237 5.948 6.043 7.566 8.422a982.05 982.05 0 0 0 5.996 8.702c2.38 3.433 4.043 6.715 4.998 9.855a158.985 158.985 0 0 1 2.707 10.276c.855 3.72 1.283 7.57 1.283 11.57.005 11.987-2.613 22.456-7.85 31.397z"/><path d="M401.998 73.09V0h-36.55v73.09h-73.09v36.546h73.09v73.09H402v-73.09h73.083V73.09z"/></symbol><symbol id="hamburger" viewBox="0 0 438.533 438.533"><path d="M420.265 328.897H18.275c-4.953 0-9.236 1.813-12.852 5.428C1.807 337.938 0 342.225 0 347.172v36.548c0 4.95 1.807 9.23 5.424 12.848 3.62 3.613 7.902 5.424 12.85 5.424h401.992c4.948 0 9.23-1.81 12.847-5.424 3.614-3.617 5.42-7.898 5.42-12.848v-36.548c0-4.948-1.8-9.233-5.42-12.847-3.618-3.614-7.896-5.428-12.848-5.428zM433.112 41.968c-3.617-3.617-7.898-5.426-12.847-5.426H18.275c-4.953 0-9.236 1.81-12.852 5.426C1.807 45.583 0 49.866 0 54.813V91.36c0 4.95 1.807 9.23 5.424 12.847 3.62 3.618 7.902 5.424 12.85 5.424h401.992c4.948 0 9.23-1.806 12.847-5.423 3.614-3.617 5.42-7.898 5.42-12.847V54.813c0-4.947-1.804-9.23-5.42-12.845zM420.265 182.72H18.275c-4.953 0-9.236 1.81-12.852 5.426C1.807 191.76 0 196.044 0 200.992v36.547c0 4.947 1.807 9.235 5.424 12.846 3.62 3.614 7.902 5.428 12.85 5.428h401.992c4.948 0 9.23-1.813 12.847-5.428 3.614-3.61 5.42-7.898 5.42-12.847V200.99c0-4.948-1.806-9.23-5.42-12.847-3.618-3.617-7.896-5.425-12.848-5.425z"/></symbol><symbol id="linkedin" viewBox="0 0 438.536 438.535"><path d="M5.424 145.895H99.64v282.932H5.424zM408.842 171.74c-19.79-21.605-45.967-32.41-78.512-32.41-11.99 0-22.89 1.476-32.695 4.428-9.8 2.95-18.08 7.09-24.838 12.42-6.755 5.33-12.135 10.277-16.13 14.843-3.797 4.338-7.51 9.39-11.135 15.105v-40.232h-93.935l.288 13.706c.193 9.138.288 37.306.288 84.507 0 47.205-.19 108.777-.572 184.722h93.932V270.94c0-9.705 1.04-17.412 3.14-23.127 4-9.712 10.036-17.843 18.13-24.407 8.093-6.572 18.13-9.855 30.125-9.855 16.364 0 28.407 5.662 36.117 16.987 7.707 11.324 11.56 26.98 11.56 46.966V428.82h93.932V266.664c-.007-41.688-9.897-73.328-29.694-94.925zM53.103 9.708c-15.796 0-28.595 4.62-38.4 13.848C4.9 32.786 0 44.44 0 58.53c0 13.89 4.758 25.504 14.275 34.828 9.514 9.325 22.078 13.99 37.685 13.99h.57c15.99 0 28.888-4.66 38.69-13.99 9.8-9.324 14.605-20.934 14.416-34.83-.19-14.086-5.047-25.74-14.56-34.972C81.56 14.323 68.9 9.708 53.102 9.708z"/></symbol><symbol id="loupe" viewBox="0 0 475.084 475.084"><path d="M464.524 412.846l-97.93-97.925c23.6-34.067 35.407-72.046 35.407-113.916 0-27.218-5.283-53.25-15.85-78.087-10.562-24.842-24.84-46.254-42.826-64.24-17.987-17.988-39.396-32.265-64.233-42.827C254.247 5.285 228.218.003 201 .003c-27.217 0-53.248 5.282-78.086 15.847-24.842 10.562-46.254 24.84-64.24 42.826-17.99 17.987-32.265 39.403-42.828 64.24C5.282 147.76 0 173.787 0 201.005c0 27.216 5.282 53.238 15.846 78.083 10.562 24.838 24.838 46.247 42.827 64.234 17.987 17.994 39.403 32.265 64.24 42.833 24.842 10.563 50.87 15.844 78.086 15.844 41.878 0 79.85-11.807 113.92-35.405l97.93 97.64c6.852 7.232 15.406 10.85 25.693 10.85 9.897 0 18.467-3.617 25.694-10.85 7.23-7.23 10.848-15.795 10.848-25.692.003-10.082-3.518-18.65-10.56-25.694zm-173.16-121.488c-25.03 25.033-55.15 37.55-90.365 37.55-35.21 0-65.33-12.52-90.36-37.55-25.032-25.03-37.547-55.144-37.547-90.36 0-35.21 12.518-65.334 37.546-90.36 25.025-25.032 55.15-37.546 90.36-37.546s65.33 12.52 90.363 37.546 37.548 55.15 37.548 90.36c0 35.216-12.518 65.33-37.547 90.36z"/></symbol><symbol id="star" viewBox="0 0 475.075 475.075"><path d="M475.075 186.573c0-7.043-5.328-11.42-15.992-13.135L315.766 152.6 251.53 22.694c-3.615-7.804-8.282-11.704-13.99-11.704-5.71 0-10.373 3.9-13.99 11.704L159.31 152.6 15.986 173.438C5.33 175.153 0 179.53 0 186.573c0 4 2.38 8.567 7.14 13.706l103.923 101.067-24.553 142.75c-.38 2.665-.57 4.574-.57 5.71 0 3.998.998 7.375 2.996 10.137 1.997 2.766 4.993 4.142 8.992 4.142 3.428 0 7.233-1.137 11.42-3.423l128.188-67.386 128.194 67.38c4 2.285 7.806 3.43 11.416 3.43 7.812 0 11.714-4.75 11.714-14.272 0-2.47-.096-4.374-.287-5.716l-24.55-142.745 103.633-101.07c4.948-4.955 7.42-9.525 7.42-13.712zM324.62 288.5l20.55 120.2-107.634-56.82-107.922 56.82 20.843-120.2-87.365-84.8L183.576 186l53.96-109.063L291.49 186l120.494 17.7-87.367 84.8z"/></symbol><symbol id="target" viewBox="0 0 438.533 438.533"><path d="M409.133 109.203c-19.608-33.592-46.205-60.19-79.798-79.796C295.735 9.8 259.058 0 219.273 0c-39.78 0-76.47 9.8-110.063 29.407-33.595 19.604-60.192 46.2-79.8 79.796C9.8 142.8 0 179.49 0 219.267c0 39.78 9.804 76.463 29.407 110.062 19.607 33.59 46.204 60.188 79.8 79.797 33.596 19.605 70.282 29.407 110.062 29.407s76.47-9.802 110.064-29.407c33.593-19.602 60.19-46.206 79.795-79.798 19.602-33.597 29.402-70.285 29.402-110.063 0-39.782-9.8-76.472-29.4-110.064zm-21.7 181.01c-9.708 22.556-22.695 41.97-38.968 58.245-16.27 16.27-35.69 29.26-58.245 38.965-22.555 9.712-46.202 14.564-70.946 14.564s-48.39-4.853-70.948-14.564c-22.554-9.705-41.97-22.696-58.245-38.965-16.268-16.275-29.258-35.687-38.97-58.245-9.706-22.552-14.56-46.206-14.56-70.946 0-24.744 4.853-48.39 14.56-70.948 9.708-22.555 22.698-41.97 38.97-58.246 16.275-16.27 35.692-29.26 58.246-38.97 22.554-9.704 46.205-14.558 70.948-14.558 24.74 0 48.395 4.85 70.946 14.558 22.556 9.707 41.97 22.698 58.245 38.97 16.272 16.274 29.26 35.688 38.97 58.245 9.708 22.553 14.563 46.2 14.563 70.947.004 24.744-4.855 48.397-14.564 70.946z"/><path d="M219.27 73.085c-40.35 0-74.803 14.28-103.353 42.83-28.55 28.548-42.825 63-42.825 103.352 0 40.355 14.275 74.803 42.825 103.354 28.55 28.548 63.003 42.825 103.353 42.825s74.81-14.273 103.35-42.824c28.552-28.55 42.826-63 42.826-103.353s-14.27-74.804-42.825-103.353c-28.54-28.553-63-42.83-103.35-42.83zm77.514 223.698c-21.41 21.41-47.247 32.114-77.514 32.114s-56.104-10.705-77.515-32.114c-21.414-21.416-32.12-47.253-32.12-77.517 0-30.268 10.706-56.103 32.12-77.516 21.416-21.41 47.25-32.12 77.515-32.12 30.267 0 56.105 10.71 77.514 32.12 21.412 21.413 32.12 47.248 32.12 77.516 0 30.264-10.708 56.1-32.12 77.517z"/><path d="M219.27 146.178c-20.177 0-37.4 7.14-51.678 21.41-14.272 14.278-21.41 31.502-21.41 51.68 0 20.174 7.134 37.4 21.41 51.672 14.277 14.277 31.504 21.416 51.678 21.416 20.18 0 37.406-7.14 51.676-21.416 14.274-14.27 21.413-31.498 21.413-51.673 0-20.177-7.14-37.4-21.414-51.678-14.27-14.274-31.497-21.412-51.676-21.412z"/></symbol><symbol id="twitter" viewBox="0 0 449.956 449.956"><path d="M449.956 85.657c-17.702 7.614-35.408 12.37-53.102 14.28 19.985-11.992 33.503-28.932 40.546-50.82-18.28 10.847-37.787 18.268-58.532 22.267-18.274-19.414-40.73-29.125-67.383-29.125-25.502 0-47.246 8.99-65.24 26.98-17.984 17.986-26.977 39.73-26.977 65.234 0 6.85.76 13.896 2.284 21.128-37.688-1.903-73.042-11.372-106.068-28.407C82.46 110.158 54.434 87.46 31.404 59.1c-8.376 14.273-12.565 29.788-12.565 46.537 0 15.798 3.71 30.456 11.137 43.97 7.422 13.512 17.417 24.455 29.98 32.83-14.85-.57-28.743-4.474-41.684-11.707v1.142c0 22.27 6.995 41.824 20.983 58.674C53.246 247.394 70.9 258 92.216 262.38a95.543 95.543 0 0 1-24.268 3.137c-5.33 0-11.136-.475-17.416-1.42 5.9 18.46 16.75 33.633 32.546 45.535 15.8 11.896 33.69 18.028 53.677 18.418-33.498 26.262-71.66 39.393-114.486 39.393-8.187 0-15.608-.373-22.27-1.14C42.825 393.9 90.03 407.7 141.61 407.7c32.74 0 63.48-5.18 92.21-15.557 28.747-10.368 53.298-24.266 73.666-41.685 20.362-17.415 37.925-37.448 52.674-60.097 14.75-22.65 25.738-46.298 32.977-70.946 7.23-24.653 10.848-49.344 10.848-74.092 0-5.33-.096-9.325-.287-11.99 18.087-13.128 33.504-29.024 46.258-47.673z"/></symbol></svg>